<svg aria-hidden="true" style="width:0;height:0;position:absolute;overflow:hidden" xmlns="http://www.w3.org/2000/svg"><defs><symbol id="icon-star" viewBox="0 0 32 32"><path d="M23.453 19.013a1.06 1.06 0 0 0-.24.387 1.082 1.082 0 0 0 0 .467l.787 5.24c.07.409.024.829-.133 1.213-.16.388-.428.721-.773.96-.342.24-.743.383-1.16.413a2.195 2.195 0 0 1-1.187-.293l-4.253-2.36a.99.99 0 0 0-.947 0L11.32 27.4a2.375 2.375 0 0 1-1.2.28 2.226 2.226 0 0 1-2.054-2.574l.853-5.24a.924.924 0 0 0 0-.467.88.88 0 0 0-.227-.387l-3.747-3.773a2.327 2.327 0 0 1-.573-1.053 2.304 2.304 0 0 1 0-1.2c.148-.387.396-.728.72-.987.313-.263.69-.438 1.093-.507l4.92-.747c.159-.029.309-.092.44-.187.13-.099.235-.227.307-.373l2.133-4.587c.177-.382.459-.706.813-.933a2.232 2.232 0 0 1 2.386 0c.354.227.637.551.813.933l2.147 4.587a.928.928 0 0 0 .307.373c.129.097.28.161.44.187l4.92.747a2.28 2.28 0 0 1 1.093.507c.306.269.536.614.667 1 .107.393.107.807 0 1.2a2.336 2.336 0 0 1-.573 1.053l-3.547 3.76z"/></symbol><symbol id="icon-basket" viewBox="0 0 32 32"><path d="M10.843 3.339 5.894 12H4.001a1.336 1.336 0 0 0-1.287 1.684l3.732 13.684a2.672 2.672 0 0 0 2.573 1.965h13.964a2.674 2.674 0 0 0 2.573-1.967l3.732-13.684A1.33 1.33 0 0 0 28 11.999h-1.893l-4.949-8.661-2.315 1.323L23.036 12H8.964l4.193-7.339-2.315-1.323zm7.824 13.994h2.667V24h-2.667v-6.667zm-8 0h2.667V24h-2.667v-6.667z"/></symbol><symbol id="icon-ice-cream" viewBox="0 0 32 32"><path fill="#64646a" style="fill:var(--color1,#64646a)" d="M24.78 11.017a1.038 1.038 0 0 1-.474-1.044c.876-5.197-3.137-9.9-8.3-9.973-5.376-.076-9.491 4.768-8.527 10.078.072.399-.09.808-.413 1.042a3.196 3.196 0 0 0-1.321 2.794c.174 2.878 3.778 4.057 5.631 1.885l.079.048a.879.879 0 0 1 .434.753v1.379c0 .523.208 1.012.585 1.375 1.201 1.159 3.238.328 3.238-1.409v-3.126c0-.761.889-1.165 1.431-.639a.836.836 0 0 1 .256.605v1.602c0 1.072.885 1.948 1.981 1.911 1.441-.053 1.747-1.142 1.826-1.969 2.075 1.465 4.954.037 5.049-2.493a3.219 3.219 0 0 0-1.477-2.821zm-10.201-6.56c-.456.152-.485.232-.685.232-.571 0-.74-.778-.226-1.018.187-.087.38-.163.576-.228a.534.534 0 1 1 .335 1.014zm-3.345 3.462a.533.533 0 0 1-.519-.661 5.388 5.388 0 0 1 1.067-2.125.533.533 0 1 1 .824.678 4.316 4.316 0 0 0-.854 1.702.532.532 0 0 1-.518.406zm11.036 9.995c.314.059.495.39.378.687L17.872 30.66c-.706 1.787-3.269 1.788-3.976 0L9.134 18.638a.51.51 0 0 1 .406-.692c.216-.03.43-.077.641-.14a.51.51 0 0 1 .657.439c.05.521.237 1.246.895 1.88 1.636 1.577 4.23.78 4.89-1.194a.51.51 0 0 1 .809-.227c1.303 1.056 3.372.852 4.311-.58a.502.502 0 0 1 .526-.21z"/></symbol><symbol id="icon-fast-food" viewBox="0 0 32 32"><path fill="#64646a" style="fill:var(--color1,#64646a)" d="M9.668 22.253a2.813 2.813 0 0 1-1.418-2.441c0-4.308 3.505-7.813 7.813-7.813h3.219l.152-2.5H1.192l1.31 21.619c.03.495.44.881.936.881H9.19a4.662 4.662 0 0 1-.94-2.813c0-1.216.775-2.253 1.857-2.645-.384-.588-.607-1.289-.607-2.042s.224-1.456.609-2.044c-.306-.069-.475-.137-.441-.202zM10.312 7.625H19.688a.938.938 0 0 0 0-1.876h-7.644l2.527-3.875h3.242a.938.938 0 0 0 0-1.876h-3.75a.937.937 0 0 0-.785.425L9.805 5.748H.938a.938.938 0 0 0 0 1.876h9.374z"/><path fill="#64646a" style="fill:var(--color1,#64646a)" d="M10.125 19.813c0 .518.42.938.938.938h20c.518 0 .938-.42.938-.938a5.945 5.945 0 0 0-5.938-5.938h-10a5.945 5.945 0 0 0-5.938 5.938zM13.25 22.625a1.874 1.874 0 1 0 0 3.75h15.625a1.874 1.874 0 1 0 0-3.75H13.25zM31.062 28.25h-20a.938.938 0 0 0-.938.937A2.816 2.816 0 0 0 12.937 32h16.25A2.816 2.816 0 0 0 32 29.187a.937.937 0 0 0-.938-.937z"/></symbol><symbol id="icon-food" viewBox="0 0 32 32"><path fill="#64646a" style="fill:var(--color1,#64646a)" d="M26.8 16.791a2.882 2.882 0 0 1-.37-.539c-.05 5.146-4.251 9.317-9.409 9.317-5.188 0-9.41-4.221-9.41-9.41s4.221-9.41 9.41-9.41c4.463 0 8.211 3.124 9.171 7.3l.871-6.477a13.192 13.192 0 0 0-10.042-4.633 13.157 13.157 0 0 0-8.28 2.923v3.047a5.177 5.177 0 0 1-2.399 4.363v10.669c2.407 3.293 6.297 5.437 10.679 5.437 4.605 0 8.666-2.367 11.034-5.948v-5.811a2.822 2.822 0 0 1-1.255-.829z"/><path fill="#64646a" style="fill:var(--color1,#64646a)" d="M17.022 8.349c-4.307 0-7.811 3.504-7.811 7.811s3.504 7.811 7.811 7.811 7.811-3.504 7.811-7.811-3.504-7.811-7.811-7.811zM31.964 1.543a1.232 1.232 0 0 0-2.453-.164L27.71 14.763a1.233 1.233 0 0 0 1.222 1.396h.723v14.356a1.173 1.173 0 1 0 2.345 0l-.035-28.973zM7.143 1.803a.8.8 0 1 0-1.6 0v4.424H4.37V1.803a.8.8 0 1 0-1.6 0v4.424H1.597V1.803a.8.8 0 1 0-1.6 0v7.214a3.578 3.578 0 0 0 2.399 3.373v18.127a1.173 1.173 0 1 0 2.346 0V12.39a3.577 3.577 0 0 0 2.399-3.373V1.803z"/></symbol><symbol id="icon-arrow-right" viewBox="0 0 32 32"><path d="m19.414 27.414 10-10a2 2 0 0 0 0-2.828l-10-10a2 2 0 1 0-2.828 2.828L23.172 14H4a2 2 0 1 0 0 4h19.172l-6.586 6.586c-.39.39-.586.902-.586 1.414s.195 1.024.586 1.414a2 2 0 0 0 2.828 0z"/></symbol><symbol id="icon-arrow-left" viewBox="0 0 32 32"><path d="m12.586 27.414-10-10a2 2 0 0 1 0-2.828l10-10a2 2 0 1 1 2.828 2.828L8.828 14H28a2 2 0 1 1 0 4H8.828l6.586 6.586c.39.39.586.902.586 1.414s-.195 1.024-.586 1.414a2 2 0 0 1-2.828 0z"/></symbol><symbol id="icon-linkedin" viewBox="0 0 32 32"><path d="M6.644 9.596a2.917 2.917 0 1 0 0-5.834 2.917 2.917 0 0 0 0 5.834zM12.316 11.807v16.185h5.025v-8.004c0-2.112.397-4.157 3.016-4.157 2.583 0 2.615 2.415 2.615 4.291v7.872H28v-8.876c0-4.36-.939-7.711-6.035-7.711-2.447 0-4.087 1.343-4.757 2.613h-.068v-2.213h-4.824zm-8.189 0H9.16v16.185H4.127V11.807z"/></symbol><symbol id="icon-twitter" viewBox="0 0 32 32"><path d="M26.177 10.663c.017.233.017.465.017.697 0 7.1-5.404 15.281-15.28 15.281-3.043 0-5.869-.881-8.248-2.412.432.049.848.067 1.297.067 2.511 0 4.821-.848 6.668-2.295a5.382 5.382 0 0 1-5.023-3.724c.332.049.665.083 1.015.083.481 0 .965-.067 1.415-.183a5.37 5.37 0 0 1-4.307-5.271v-.067a5.412 5.412 0 0 0 2.427.681 5.362 5.362 0 0 1-2.395-4.472c0-.997.265-1.912.731-2.709a15.276 15.276 0 0 0 11.075 5.62 6.082 6.082 0 0 1-.133-1.231 5.369 5.369 0 0 1 5.371-5.371c1.547 0 2.943.648 3.924 1.696a10.62 10.62 0 0 0 3.408-1.297 5.36 5.36 0 0 1-2.361 2.96 10.76 10.76 0 0 0 3.092-.832 11.525 11.525 0 0 1-2.692 2.777z"/></symbol><symbol id="icon-instagram" viewBox="0 0 32 32"><path d="M27.929 11.073a8.701 8.701 0 0 0-.559-2.955 6.146 6.146 0 0 0-3.511-3.511 8.79 8.79 0 0 0-2.915-.56c-1.283-.057-1.689-.073-4.945-.073s-3.673 0-4.947.073a8.789 8.789 0 0 0-2.913.56 6.144 6.144 0 0 0-3.511 3.511 8.737 8.737 0 0 0-.559 2.913c-.057 1.284-.075 1.691-.075 4.947s0 3.672.075 4.947a8.79 8.79 0 0 0 .559 2.916A6.145 6.145 0 0 0 8.14 27.35a8.768 8.768 0 0 0 2.913.6c1.284.057 1.691.075 4.947.075s3.673 0 4.947-.075a8.783 8.783 0 0 0 2.915-.559 6.155 6.155 0 0 0 3.511-3.511 8.77 8.77 0 0 0 .559-2.916c.057-1.283.075-1.689.075-4.947-.003-3.256-.003-3.669-.077-4.945zM15.992 22.136c-3.405 0-6.164-2.759-6.164-6.164s2.759-6.164 6.164-6.164a6.164 6.164 0 0 1 0 12.328zm6.409-11.119c-.796 0-1.437-.643-1.437-1.437a1.435 1.435 0 1 1 2.873 0c0 .794-.643 1.437-1.436 1.437z"/><path d="M15.992 19.976a4.004 4.004 0 1 0 0-8.009 4.004 4.004 0 0 0 0 8.009z"/></symbol><symbol id="icon-facebook" viewBox="0 0 32 32"><path d="M17.863 27.996V17.068h3.687l.548-4.279h-4.235v-2.725c0-1.235.344-2.08 2.116-2.08h2.245V4.169A29.865 29.865 0 0 0 18.935 4c-3.259 0-5.496 1.989-5.496 5.641v3.14H9.776v4.279h3.671v10.936h4.416z"/></symbol><symbol id="icon-call" viewBox="0 0 32 32"><path d="M24.222 19.173c-.896-.193-1.604.223-2.231.586-.642.374-1.864 1.365-2.564 1.112-3.585-1.476-6.957-4.614-8.417-8.214-.257-.715.729-1.945 1.101-2.595.36-.629.768-1.344.582-2.247-.168-.811-2.339-3.573-3.106-4.329-.506-.499-1.025-.773-1.557-.818-2.002-.086-4.237 2.585-4.629 3.224-.982 1.362-.977 3.175.017 5.374 2.394 5.905 11.447 14.815 17.374 17.299 1.094.511 2.094.768 2.992.768.879 0 1.662-.245 2.335-.732.508-.293 3.288-2.639 3.215-4.694-.044-.524-.318-1.048-.81-1.555-.75-.775-3.494-3.01-4.299-3.18z"/></symbol><symbol id="icon-email" viewBox="0 0 32 32"><path d="m20.735 17.328-2.68 2.689c-1.087 1.091-2.999 1.114-4.11 0l-2.68-2.689-9.626 9.657c.358.166.753.265 1.173.265h26.375c.42 0 .815-.099 1.173-.264l-9.626-9.657z"/><path d="M29.188 4.75H2.813c-.42 0-.815.099-1.173.265l10.286 10.32.002.002.001.002 3.345 3.356c.355.355 1.099.355 1.454 0l3.344-3.355.002-.002a.002.002 0 0 0 .002-.002l10.286-10.32a2.777 2.777 0 0 0-1.173-.264zM.299 6.326A2.784 2.784 0 0 0 0 7.563v16.875c0 .446.114.862.299 1.237l9.643-9.674L.299 6.326zM31.701 6.326l-9.643 9.675 9.643 9.674c.185-.375.299-.791.299-1.237V7.563c0-.446-.114-.862-.299-1.237z"/></symbol></defs></svg>